<?xml version="1.0" encoding="UTF-8" standalone="no"?>
<!-- Created with Inkscape (http://www.inkscape.org/) -->

<svg
   xmlns:dc="http://purl.org/dc/elements/1.1/"
   xmlns:cc="http://creativecommons.org/ns#"
   xmlns:rdf="http://www.w3.org/1999/02/22-rdf-syntax-ns#"
   xmlns:svg="http://www.w3.org/2000/svg"
   xmlns="http://www.w3.org/2000/svg"
   xmlns:sodipodi="http://sodipodi.sourceforge.net/DTD/sodipodi-0.dtd"
   xmlns:inkscape="http://www.inkscape.org/namespaces/inkscape"
   width="191.73393mm"
   height="125.21165mm"
   viewBox="0 0 191.73394 125.21166"
   version="1.1"
   id="svg7497"
   sodipodi:docname="logo_1.svg"
   inkscape:version="0.92.1 r15371">
  <defs
     id="defs7491">
    <filter
       filterUnits="userSpaceOnUse"
       x="-89"
       y="-133"
       width="1920"
       height="871"
       id="halo_esri.Map_1_labels_0_0_0_1_1">
      <feMorphology
         operator="dilate"
         radius="1"
         result="dilated"
         id="feMorphology33" />
      <feFlood
         flood-color="rgba(0, 0, 0, 1)"
         id="feFlood35" />
      <feComposite
         in2="dilated"
         operator="in"
         result="composite"
         id="feComposite37" />
      <feMerge
         id="feMerge39">
        <feMergeNode
           in="composite"
           id="feMergeNode41" />
        <feMergeNode
           in="SourceGraphic"
           id="feMergeNode43" />
      </feMerge>
    </filter>
  </defs>
  <sodipodi:namedview
     id="base"
     pagecolor="#ffffff"
     bordercolor="#666666"
     borderopacity="1.0"
     inkscape:pageopacity="0.0"
     inkscape:pageshadow="2"
     inkscape:zoom="2.8"
     inkscape:cx="492.61187"
     inkscape:cy="269.17464"
     inkscape:document-units="mm"
     inkscape:current-layer="g6238"
     showgrid="false"
     inkscape:window-width="1920"
     inkscape:window-height="1012"
     inkscape:window-x="1920"
     inkscape:window-y="44"
     inkscape:window-maximized="1"
     fit-margin-top="0"
     fit-margin-left="0"
     fit-margin-right="0"
     fit-margin-bottom="0"
     inkscape:measure-start="0,0"
     inkscape:measure-end="0,0"
     showguides="false" />
  <metadata
     id="metadata7494">
    <rdf:RDF>
      <cc:Work
         rdf:about="">
        <dc:format>image/svg+xml</dc:format>
        <dc:type
           rdf:resource="http://purl.org/dc/dcmitype/StillImage" />
        <dc:title></dc:title>
      </cc:Work>
    </rdf:RDF>
  </metadata>
  <g
     inkscape:label="Camada 1"
     inkscape:groupmode="layer"
     id="layer1"
     transform="translate(-37.324436,-85.392215)">
    <g
       transform="matrix(0.08466653,0,0,0.08466653,-23.790095,27.249997)"
       id="g7451">
      <path
         style="font-style:normal;font-weight:400;font-size:37.5px;font-family:'Sans Serif';vector-effect:none;fill:#000000;fill-opacity:0.15686275;fill-rule:evenodd;stroke:none;stroke-width:35.43312836;stroke-linecap:square;stroke-linejoin:bevel;stroke-miterlimit:4;stroke-dasharray:none;stroke-opacity:1"
         d="m 1392.4219,836.33757 223.1265,26.13172 312.3798,46.58233 21.9344,-39.29623 289.5804,-5.78221 -24.7653,89.3856 197.5909,154.98252 72.2774,120.1923 -83.1196,153.4838 15.8396,243.4166 -252.004,143.7428 -252.5838,-20.1955 28.4772,115.534 91.6143,146.0636 -213.2211,155.0214 -233.066,-35.3675 -88.0806,-193.0974 -33.7825,-207.9983 27.6871,-229.2766 -237.9861,-35.4983 -200.3174,-109.1464 -219.10825,-73.0616 -113.06851,-240.0613 177.78774,-306.27173 15.89683,-2.11121 -32.61459,230.75667 128.95558,36.58537 49.1394,-211.67185 106.3977,-62.16203 19.4895,-23.88165 z"
         id="path464"
         inkscape:connector-curvature="0"
         sodipodi:nodetypes="ccccccccccccccccccccccccccccccc" />
      <g
         id="g4514"
         transform="matrix(1.6336458,1.8355613,-1.8355613,1.6336458,4887.1644,503.77039)"
         style="fill:#000000;fill-opacity:1;stroke:none">
        <path
           id="path4497"
           d="m 54.34956,-118.81034 c -2.089025,0.89021 -4.110652,1.9437 -5.942575,3.39327 -3.213814,2.543 -5.589331,5.79369 -7.235818,9.40553 l -13.552393,-1.57324 c -28.647838,-3.33775 -54.668597,17.252359 -58.006329,45.900178 -1.622638,13.828693 2.284814,27.507521 10.96227,38.473604 8.687502,10.978856 21.10161,17.9264236 34.932897,19.5263436 l 14.118883,1.650766 c 1.508987,5.3719678 4.797407,10.1399668 9.179915,13.5680954 1.821418,84.958764 26.9683,164.637363 72.26752,226.276733 2.27529,3.09603 4.60143,6.14656 6.97801,9.14995 2.64339,3.34048 5.33641,6.60055 8.08779,9.80403 3.68491,4.27904 9.83297,5.44416 14.82842,2.82098 5.00178,-2.62819 7.52683,-8.34735 6.09148,-13.80865 -17.63107,-67.2227 -24.89332,-142.39256 -21.77228,-220.398105 l 4.0637,0.484983 c 10.61786,1.225588 20.43539,-4.409247 25.14898,-13.354838 L 618.13206,66.538407 C 646.77487,69.869765 672.80194,49.274656 676.1447,20.63321 677.76233,6.7982164 673.8586,-6.8629954 665.16608,-17.848074 656.47358,-28.833232 644.0808,-35.766817 630.2395,-37.379429 L 167.0603,-91.344291 c -0.77033,-3.90494 -2.34165,-7.60967 -4.87962,-10.817109 -4.18326,-5.28653 -10.14806,-8.617 -16.81829,-9.39987 l -3.97414,-0.46317 c 14.92713,-76.11204 39.17264,-147.10463 71.59333,-208.10452 2.29153,-4.30773 1.7548,-9.48022 -1.19455,-13.2074 -0.46156,-0.58363 -0.98632,-1.11622 -1.54786,-1.63048 -4.27129,-3.6913 -10.51616,-3.97583 -15.08742,-0.64747 -66.62156,48.37787 -116.823573,126.71564 -140.80219,216.80365 z"
           inkscape:connector-curvature="0"
           style="fill:#000000;fill-opacity:1;stroke:none;stroke-width:8.08326721;stroke-opacity:1"
           sodipodi:nodetypes="cccccccccsccccccccccccccccccccc" />
      </g>
      <path
         style="fill:#000000;fill-opacity:0;stroke:none;stroke-width:2.73815584px;stroke-linecap:butt;stroke-linejoin:miter;stroke-opacity:1"
         d="m 2156.2593,1279.6306 39.3969,-40.4597 36.3884,-27.8373 9.9128,13.8972 17.8238,-15.5573 11.7113,14.7956 8.7863,-16.332 14.0247,22.742 25.7065,-9.497 53.1455,31.3464 -100.1872,179.9422 -81.4734,-29.774 -35.2356,-123.2661 v 0"
         id="path5240"
         inkscape:connector-curvature="0"
         sodipodi:nodetypes="cccccccccccccc" />
      <g
         id="g5413"
         style="fill:#b13838;fill-opacity:1;stroke:none;stroke-width:10.45277309;stroke-miterlimit:4;stroke-dasharray:none;stroke-opacity:1">
        <path
           sodipodi:nodetypes="ccccccccccccccccccccccc"
           inkscape:connector-curvature="0"
           id="path5385"
           d="m 1479.257,1440.5567 109.3752,-80.3573 118.3037,2.2321 256.6969,-35.7143 162.9467,-11.1607 64.9154,87.3402 171.6921,-49.3938 38.2394,28.5145 4.1714,132.2001 -193.0807,63.6162 -58.0358,-69.1966 -87.0537,11.1607 -83.1038,-74.765 -70.639,19.5687 -35.3223,-30.8615 -59.3435,1.4702 -40.6544,-7.2804 -79.2802,32.0747 -62.4611,79.8826 -147.3217,-15.625 3.005,-24.4016 -62.1568,-5.7323 z"
           style="fill:#b13838;fill-opacity:1;stroke:none;stroke-width:10.45277309;stroke-linecap:butt;stroke-linejoin:miter;stroke-miterlimit:4;stroke-dasharray:none;stroke-opacity:1" />
        <path
           sodipodi:nodetypes="cccc"
           inkscape:connector-curvature="0"
           id="path5409"
           d="m 2316.6949,1679.8852 -89.9927,1.5254 -1.5253,53.3854 z"
           style="fill:#b13838;fill-opacity:1;stroke:none;stroke-width:10.45277309;stroke-linecap:butt;stroke-linejoin:miter;stroke-miterlimit:4;stroke-dasharray:none;stroke-opacity:1" />
      </g>
      <g
         id="g6288"
         transform="matrix(-1,0,0,1,3899.0026,-94.778103)">
        <ellipse
           ry="480.00131"
           rx="482.30591"
           cy="1327.8074"
           cx="1692.1571"
           id="path6279"
           style="fill:#ffffff;fill-opacity:0.78431373;stroke:#000000;stroke-width:11.4087553;stroke-miterlimit:4;stroke-dasharray:none;stroke-opacity:1" />
        <g
           transform="matrix(1.2980412,0,0,1.2980412,-722.51289,-391.80919)"
           id="g6238">
          <g
             style="fill:#000000;fill-opacity:1;stroke:#000000;stroke-opacity:1"
             id="g6183"
             transform="matrix(-14.755063,0,0,14.755063,1254.3556,-8454.5881)">
            <g
               style="fill:#000000;fill-opacity:1;stroke:#000000;stroke-opacity:1"
               id="g6165"
               transform="translate(-80.812205,-332.12851)">
              <path
                 sodipodi:nodetypes="ssscccccsssssss"
                 id="path6163"
                 overflow="visible"
                 display="inline"
                 visibility="visible"
                 marker="none"
                 d="M 40.0029,966.88499 C 24.5611,966.88499 12,979.44602 12,994.88794 c 0,15.44186 12.5611,28.00296 28.0029,28.00296 7.0057,0 12.777249,-1.925 17.693149,-6.1918 l 17.781018,17.7811 c 0.781,0.7811 2.684351,0.1284 3.465351,-0.6527 0.7813,-0.7812 1.433751,-2.6844 0.652651,-3.4655 l -17.781018,-17.7811 c 4.2668,-4.9158 6.191849,-10.6873 6.191849,-17.69296 0,-15.44192 -12.5611,-28.00295 -28.003,-28.00295 z m 0,4.00042 c 13.2798,0 24.0026,10.72262 24.0026,24.00253 0,13.27976 -10.7228,24.00256 -24.0026,24.00256 -13.2798,0 -24.0025,-10.7228 -24.0025,-24.00256 0,-13.27991 10.7227,-24.00253 24.0025,-24.00253 z"
                 style="color:#000000;text-indent:0;text-transform:none;direction:ltr;baseline-shift:baseline;display:inline;overflow:visible;visibility:visible;fill:#000000;fill-opacity:1;stroke:#000000;stroke-opacity:1;enable-background:accumulate"
                 inkscape:connector-curvature="0" />
            </g>
          </g>
          <g
             id="g5407"
             transform="matrix(-0.87401408,-0.18158102,-0.18158102,0.87401408,1769.6335,1366.2501)"
             style="fill:#000000;fill-opacity:1;stroke:none;stroke-opacity:1">
            <path
               id="path5387"
               d="m 78.072703,125.06652 -51.146644,34.20879 c -1.2769,0.858 -2.765775,1.29709 -4.279885,1.29709 -0.499656,0 -1.009407,-0.0454 -1.504016,-0.15141 -1.998625,-0.38862 -3.754993,-1.56963 -4.90067,-3.26543 L -157.2705,-102.2519 c -45.53939,31.104871 -89.3426,66.307934 -128.92144,104.6906279 -0.60059,0.5854559 -1.39298,0.9589364 -2.23583,1.0548301 l -17.30124,1.9683433 c -0.15141,0.015141 -0.28768,0.020188 -0.43909,0.020188 -1.2769,0 -2.49323,-0.6359263 -3.19982,-1.7210386 -0.81257,-1.2011941 -0.85799,-2.7556806 -0.14636,-4.00734508 C -276.47135,-58.907972 -236.80671,-109.04016 -190.1065,-151.35953 l -19.61782,-29.32831 c -2.35697,-3.53293 -1.40813,-8.30742 2.11975,-10.66439 l 51.1416,-34.20879 c 1.70085,-1.15073 3.78527,-1.59991 5.7839,-1.15073 1.99862,0.38863 3.75499,1.56963 4.89562,3.26543 l 16.27164,24.31157 c 37.746768,-25.81053 79.198059,-47.76513 124.757636,-65.83351 1.5898158,-0.63593 3.5884413,-0.0656 4.61298921,1.43335 l 37.06037179,55.41139 c 0.661161,0.99427 0.822666,2.2207 0.449186,3.35123 -0.373481,1.13054 -1.246618,2.01881 -2.372106,2.41753 -41.9559949,14.86352 -84.88102,34.93557 -127.160025,59.06543 L 80.192457,114.40213 c 2.356965,3.52788 1.408122,8.30742 -2.119754,10.66439 z"
               inkscape:connector-curvature="0"
               style="fill:#000000;fill-opacity:1;stroke:none;stroke-width:5.04703426;stroke-opacity:1" />
          </g>
        </g>
      </g>
    </g>
  </g>
</svg>
