<?xml version="1.0" encoding="UTF-8" standalone="no"?>
<svg
   xmlns:dc="http://purl.org/dc/elements/1.1/"
   xmlns:cc="http://creativecommons.org/ns#"
   xmlns:rdf="http://www.w3.org/1999/02/22-rdf-syntax-ns#"
   xmlns:svg="http://www.w3.org/2000/svg"
   xmlns="http://www.w3.org/2000/svg"
   xmlns:sodipodi="http://sodipodi.sourceforge.net/DTD/sodipodi-0.dtd"
   xmlns:inkscape="http://www.inkscape.org/namespaces/inkscape"
   overflow="hidden"
   width="1716.4048"
   height="1007.6813"
   id="esri.Map_1_gc"
   style="overflow:visible"
   version="1.1"
   inkscape:version="0.91 r13725"
   sodipodi:docname="arco.svg">
  <metadata
     id="metadata50">
    <rdf:RDF>
      <cc:Work
         rdf:about="">
        <dc:format>image/svg+xml</dc:format>
        <dc:type
           rdf:resource="http://purl.org/dc/dcmitype/StillImage" />
        <dc:title></dc:title>
      </cc:Work>
    </rdf:RDF>
  </metadata>
  <sodipodi:namedview
     pagecolor="#222222"
     bordercolor="#666666"
     borderopacity="1"
     objecttolerance="10"
     gridtolerance="10"
     guidetolerance="10"
     inkscape:pageopacity="0"
     inkscape:pageshadow="2"
     inkscape:window-width="1920"
     inkscape:window-height="1062"
     id="namedview48"
     showgrid="false"
     fit-margin-top="0"
     fit-margin-left="0"
     fit-margin-right="0"
     fit-margin-bottom="0"
     inkscape:zoom="0.49055533"
     inkscape:cx="652.3491"
     inkscape:cy="418.10302"
     inkscape:window-x="1600"
     inkscape:window-y="18"
     inkscape:window-maximized="1"
     inkscape:current-layer="g7"
     showborder="true" />
  <g
     id="arco_minero_8575_layer"
     data-geometry-type="polygon"
     style="display:block;opacity:0.8;fill:#000000;fill-opacity:1;stroke:#000000;stroke-width:1;stroke-miterlimit:4;stroke-dasharray:none;stroke-opacity:1"
     transform="translate(-302.19795,166.38046)">
    <g
       id="g7"
       style="fill:#000000;fill-opacity:1;stroke:#000000;stroke-width:1;stroke-miterlimit:4;stroke-dasharray:none;stroke-opacity:1">
      <rect
         style="fill:#111111;fill-opacity:1;fill-rule:nonzero;stroke:none;stroke-width:1.0154196;stroke-linecap:butt;stroke-linejoin:miter;stroke-miterlimit:4;stroke-dasharray:none;stroke-dashoffset:0;stroke-opacity:1"
         id="rect4158"
         width="1710.291"
         height="185.48862"
         x="308.31174"
         y="655.81219"
         rx="1.3029488"
         inkscape:export-xdpi="300"
         inkscape:export-ydpi="300" />
      <g
         id="g4160"
         transform="matrix(1.2814413,0,0,1.2814413,-310.12193,-112.17381)"
         style="fill:#000000;fill-opacity:1;stroke:#222222;stroke-width:2.32628679;stroke-miterlimit:4;stroke-dasharray:none;stroke-opacity:1"
         inkscape:export-xdpi="300"
         inkscape:export-ydpi="300">
        <path
           style="fill:#000000;fill-opacity:1;stroke:#222222;stroke-width:2.32628679;stroke-linecap:butt;stroke-linejoin:miter;stroke-miterlimit:4;stroke-dasharray:none;stroke-opacity:1"
           inkscape:connector-curvature="0"
           id="path9"
           dojoGfxStrokeStyle="solid"
           d="m 1567,122 1,1 1,0 2,-2 0,-2 -3,-2 0,-2 0,0 1,-1 2,-1 1,-1 1,-5 0,-2 2,-2 2,-2 1,-1 11,-5 8,-3 3,-2 4,-1 3,-1 3,1 3,1 1,1 4,6 3,2 2,2 6,8 3,3 0,1 4,5 3,3 10,4 3,1 2,1 4,2 4,2 2,0 2,0 4,-2 3,-4 0,-3 1,-1 0,-6 0,-1 4,-3 2,-2 1,-1 2,0 5,-1 5,-2 3,-1 2,1 4,2 2,0 3,-1 3,-1 0,-12 14,1 -1,-7 53,1 1,16 10,0 2,-1 1,-1 -1,3 -3,4 -1,1 -3,2 -8,7 -3,2 -2,0 -6,-1 -13,-6 -4,-1 -4,0 -4,2 -4,2 -1,2 -3,4 -3,7 -2,8 0,2 -2,5 -4,6 -2,5 -2,2 -3,3 -5,2 -3,3 -2,2 0,2 1,2 1,1 1,2 -1,3 0,2 5,0 1,1 2,1 2,2 3,4 0,3 1,1 2,1 2,2 2,4 1,4 0,2 0,2 -5,6 -2,3 -1,2 1,2 1,4 1,2 -1,2 1,2 2,1 1,1 1,1 3,2 3,2 2,2 1,1 2,0 2,-2 3,-4 1,-1 1,-1 5,-2 1,-1 2,-1 2,-1 2,0 1,2 1,2 2,1 2,0 2,0 4,-2 2,0 2,1 4,2 4,2 3,4 2,1 1,1 0,2 0,2 0,2 0,1 0,0 1,4 -1,5 -3,4 -4,2 -2,3 -3,3 -1,5 0,5 -2,3 -4,-3 -2,1 -2,1 -2,-1 -2,0 -2,1 -2,2 -1,2 -5,5 -3,2 -2,-1 -2,1 -3,4 -5,0 0,0 0,0 -13,4 -2,1 -1,-1 -2,5 -4,7 -3,2 -10,-2 -9,-4 -3,1 -7,-2 -4,-3 0,0 -3,0 -2,5 2,3 3,3 -4,2 -4,3 -6,2 -4,-3 -1,-1 -2,3 -1,1 -7,0 -4,0 -4,1 -4,1 -3,0 0,0 -3,2 -1,1 -2,2 -3,1 0,5 -5,11 -2,2 0,0 2,5 -1,2 0,0 0,0 1,0 0,0 1,0 1,0 1,0 4,0 1,2 0,2 0,5 0,2 2,2 2,3 1,6 -1,4 -3,4 0,6 -2,2 3,6 4,4 4,1 -3,5 0,7 3,1 -2,3 -5,-1 -4,0 0,5 -2,7 -2,1 -1,-1 0,0 -2,2 -6,2 -1,1 0,0 -7,0 -5,5 -7,3 -2,0 1,-4 -2,-7 -10,0 0,6 -3,6 -9,5 -14,3 -10,-5 -3,-5 2,-9 6,-2 4,-3 -6,-2 -9,-3 -1,8 -39,0 -2,-4 -4,-4 -6,4 -4,10 -6,6 -1,0 -7,-6 -1,0 -20,-12 -16,-12 -14,-15 -15,-20 -6,-15 -88,0 9,-15 6,-11 3,-8 -1,-7 -1,-6 1,-1 2,-1 -1,-1 1,-1 7,-8 4,-11 -4,-7 -1,-5 2,-2 4,-4 7,-6 5,-6 10,-15 6,-4 7,3 9,-7 0,-7 1,-9 0,-8 1,-10 4,-4 5,-2 16,-6 8,-6 6,-8 7,-6 1,-4 -7,-3 -4,-9 -2,-5 3,-8 2,-5 3,-7 4,-1 9,-5 0,-5 -1,-8 1,-3 4,-5 5,-6 3,-6 4,-5 4,-6 0,-8 4,-5 -1,-8 -4,-5 -8,-5 -4,-7 -4,-7 -2,-7 0,-4 63,-17 23,-7 0,3 0,2 2,3 -1,3 2,1 1,2 1,2 -1,2 -1,3 -3,5 -1,1 -9,2 -2,0 -1,1 -1,1 -1,1 0,2 0,2 1,4 0,1 1,2 2,1 2,2 2,5 4,3 1,3 2,1 2,8 1,3 1,0 1,1 2,1 2,1 1,4 0,4 1,2 0,4 0,3 1,2 5,5 3,3 3,2 5,7 4,2 2,1 5,5 4,2 z"
           path="M 1567,122 1568,123 1569,123 1571,121 1571,119 1568,117 1568,115 1568,115 1569,114 1571,113 1572,112 1573,107 1573,105 1575,103 1577,101 1578,100 1589,95 1597,92 1600,90 1604,89 1607,88 1610,89 1613,90 1614,91 1618,97 1621,99 1623,101 1629,109 1632,112 1632,113 1636,118 1639,121 1649,125 1652,126 1654,127 1658,129 1662,131 1664,131 1666,131 1670,129 1673,125 1673,122 1674,121 1674,115 1674,114 1678,111 1680,109 1681,108 1683,108 1688,107 1693,105 1696,104 1698,105 1702,107 1704,107 1707,106 1710,105 1710,93 1724,94 1723,87 1776,88 1777,104 1787,104 1789,103 1790,102 1789,105 1786,109 1785,110 1782,112 1774,119 1771,121 1769,121 1763,120 1750,114 1746,113 1742,113 1738,115 1734,117 1733,119 1730,123 1727,130 1725,138 1725,140 1723,145 1719,151 1717,156 1715,158 1712,161 1707,163 1704,166 1702,168 1702,170 1703,172 1704,173 1705,175 1704,178 1704,180 1709,180 1710,181 1712,182 1714,184 1717,188 1717,191 1718,192 1720,193 1722,195 1724,199 1725,203 1725,205 1725,207 1720,213 1718,216 1717,218 1718,220 1719,224 1720,226 1719,228 1720,230 1722,231 1723,232 1724,233 1727,235 1730,237 1732,239 1733,240 1735,240 1737,238 1740,234 1741,233 1742,232 1747,230 1748,229 1750,228 1752,227 1754,227 1755,229 1756,231 1758,232 1760,232 1762,232 1766,230 1768,230 1770,231 1774,233 1778,235 1781,239 1783,240 1784,241 1784,243 1784,245 1784,247 1784,248 1784,248 1785,252 1784,257 1781,261 1777,263 1775,266 1772,269 1771,274 1771,279 1769,282 1765,279 1763,280 1761,281 1759,280 1757,280 1755,281 1753,283 1752,285 1747,290 1744,292 1742,291 1740,292 1737,296 1732,296 1732,296 1732,296 1719,300 1717,301 1716,300 1714,305 1710,312 1707,314 1697,312 1688,308 1685,309 1678,307 1674,304 1674,304 1671,304 1669,309 1671,312 1674,315 1670,317 1666,320 1660,322 1656,319 1655,318 1653,321 1652,322 1645,322 1641,322 1637,323 1633,324 1630,324 1630,324 1627,326 1626,327 1624,329 1621,330 1621,335 1616,346 1614,348 1614,348 1616,353 1615,355 1615,355 1615,355 1616,355 1616,355 1617,355 1618,355 1619,355 1623,355 1624,357 1624,359 1624,364 1624,366 1626,368 1628,371 1629,377 1628,381 1625,385 1625,391 1623,393 1626,399 1630,403 1634,404 1631,409 1631,416 1634,417 1632,420 1627,419 1623,419 1623,424 1621,431 1619,432 1618,431 1618,431 1616,433 1610,435 1609,436 1609,436 1602,436 1597,441 1590,444 1588,444 1589,440 1587,433 1577,433 1577,439 1574,445 1565,450 1551,453 1541,448 1538,443 1540,434 1546,432 1550,429 1544,427 1535,424 1534,432 1495,432 1493,428 1489,424 1483,428 1479,438 1473,444 1472,444 1465,438 1464,438 1444,426 1428,414 1414,399 1399,379 1393,364 1305,364 1314,349 1320,338 1323,330 1322,323 1321,317 1322,316 1324,315 1323,314 1324,313 1331,305 1335,294 1331,287 1330,282 1332,280 1336,276 1343,270 1348,264 1358,249 1364,245 1371,248 1380,241 1380,234 1381,225 1381,217 1382,207 1386,203 1391,201 1407,195 1415,189 1421,181 1428,175 1429,171 1422,168 1418,159 1416,154 1419,146 1421,141 1424,134 1428,133 1437,128 1437,123 1436,115 1437,112 1441,107 1446,101 1449,95 1453,90 1457,84 1457,76 1461,71 1460,63 1456,58 1448,53 1444,46 1440,39 1438,32 1438,28 1501,11 1524,4 1524,7 1524,9 1526,12 1525,15 1527,16 1528,18 1529,20 1528,22 1527,25 1524,30 1523,31 1514,33 1512,33 1511,34 1510,35 1509,36 1509,38 1509,40 1510,44 1510,45 1511,47 1513,48 1515,50 1517,55 1521,58 1522,61 1524,62 1526,70 1527,73 1528,73 1529,74 1531,75 1533,76 1534,80 1534,84 1535,86 1535,90 1535,93 1536,95 1541,100 1544,103 1547,105 1552,112 1556,114 1558,115 1563,120 1567,122 Z"
           stroke-miterlimit="4" />
        <path
           style="fill:#000000;fill-opacity:1;stroke:#222222;stroke-width:2.32628679;stroke-linecap:butt;stroke-linejoin:miter;stroke-miterlimit:4;stroke-dasharray:none;stroke-opacity:1"
           inkscape:connector-curvature="0"
           id="path11"
           dojoGfxStrokeStyle="solid"
           d="m 1330,282 -10,5 -4,4 -9,1 -10,-4 -8,-1 -6,-2 0,0 -4,-2 -34,0 -8,2 -5,3 -3,6 -4,7 -8,4 -6,6 -7,6 -7,3 -11,-6 -6,-1 -11,1 -8,-5 -6,-7 -9,-7 -10,-1 -10,0 1,-8 8,-10 0,-20 -4,-15 -9,-18 -11,-12 -3,-11 -4,-17 -9,-14 -9,-11 -4,-15 -12,-8 -11,-8 -2,-19 2,-11 9,-4 9,-7 3,-3 0,0 1,1 1,0 1,0 0,0 1,0 2,1 1,0 0,0 2,1 1,1 1,0 0,1 1,2 0,0 1,1 2,0 1,1 1,1 1,1 1,1 1,0 1,0 1,1 2,0 1,-1 2,0 2,-2 1,-1 1,0 1,0 2,-1 0,0 3,-1 1,0 0,-1 1,-1 0,0 1,0 -1,-1 1,-2 0,-1 1,-1 1,-1 1,0 1,-1 1,-2 1,0 2,-3 1,-3 2,-2 2,-2 1,-1 0,-1 0,-1 0,-1 1,-1 1,-1 1,-1 1,-1 1,-2 3,-1 1,0 1,0 3,0 2,0 2,0 3,0 1,0 3,-1 0,0 2,0 1,-1 2,-1 1,-2 1,0 1,-1 1,1 1,0 2,1 3,0 0,1 1,1 2,0 1,1 2,0 2,0 0,0 2,1 1,0 1,0 1,0 1,-1 1,0 2,-1 1,0 0,0 2,0 0,0 2,-1 1,0 1,0 1,-1 3,1 1,0 2,-2 0,0 1,-1 1,0 1,0 2,0 1,0 1,-1 1,-1 1,-1 0,-1 1,0 1,-1 1,0 0,-2 1,-1 1,-1 3,-1 1,0 1,0 2,-2 2,1 0,0 1,0 1,-1 1,-1 0,0 1,0 0,0 0,-1 1,0 1,-1 2,-1 0,0 1,0 0,0 1,0 1,0 0,-1 1,0 0,-1 1,-1 1,-1 -1,-1 0,-1 0,-1 0,-1 1,-1 0,-1 1,-1 0,0 0,-1 1,0 1,-1 0,-1 2,-1 1,0 1,-1 1,0 1,1 0,1 1,1 0,1 1,1 1,1 1,1 1,0 0,0 1,0 0,0 1,-1 0,0 1,0 1,-1 0,0 0,0 2,-1 0,-1 1,-1 0,0 2,-3 1,-1 0,-1 2,-1 0,-1 1,0 0,0 1,0 1,0 1,1 1,0 0,1 0,1 1,1 0,1 1,1 1,1 0,1 1,2 3,1 1,-1 3,0 1,0 1,-1 0,0 1,0 1,0 1,0 0,0 0,0 0,0 2,-1 2,0 1,0 3,1 2,1 2,1 1,1 0,1 1,2 2,1 1,1 1,1 1,0 0,0 1,0 1,0 1,-1 2,0 2,-2 1,0 3,-1 1,-1 1,0 1,-2 0,-1 1,-2 0,-1 1,-1 0,-1 1,-1 1,-1 0,-2 2,-3 1,0 0,-1 0,-1 1,-1 0,0 1,-1 2,0 1,0 1,1 1,1 1,1 0,0 1,1 2,0 3,1 2,0 0,-1 1,1 1,0 0,-1 1,0 0,0 0,0 0,1 0,-1 1,1 0,0 1,0 0,0 0,0 0,0 1,0 3,-3 1,-2 2,-4 1,-1 1,-1 1,1 1,0 2,-2 8,-4 13,-5 11,-2 12,-7 6,-6 11,-2 6,-6 5,-10 5,-1 6,10 6,9 8,11 0,11 -10,6 -9,5 -3,7 0,10 1,0 0,4 2,7 4,7 4,7 8,5 4,5 1,8 -4,5 0,8 -4,6 -4,5 -3,6 -5,6 -4,5 -1,3 1,8 0,5 -9,5 -4,1 -3,7 -2,5 -3,8 2,5 4,9 7,3 -1,4 -7,6 -6,8 -8,6 -16,6 -5,2 -4,4 -1,10 0,8 -1,9 0,7 -9,7 -7,-3 -6,4 -10,15 -5,6 -7,6 -4,4 -2,2 0,0 z"
           path="M 1330,282 1320,287 1316,291 1307,292 1297,288 1289,287 1283,285 1283,285 1279,283 1245,283 1237,285 1232,288 1229,294 1225,301 1217,305 1211,311 1204,317 1197,320 1186,314 1180,313 1169,314 1161,309 1155,302 1146,295 1136,294 1126,294 1127,286 1135,276 1135,256 1131,241 1122,223 1111,211 1108,200 1104,183 1095,169 1086,158 1082,143 1070,135 1059,127 1057,108 1059,97 1068,93 1077,86 1080,83 1080,83 1081,84 1082,84 1083,84 1083,84 1084,84 1086,85 1087,85 1087,85 1089,86 1090,87 1091,87 1091,88 1092,90 1092,90 1093,91 1095,91 1096,92 1097,93 1098,94 1099,95 1100,95 1101,95 1102,96 1104,96 1105,95 1107,95 1109,93 1110,92 1111,92 1112,92 1114,91 1114,91 1117,90 1118,90 1118,89 1119,88 1119,88 1120,88 1119,87 1120,85 1120,84 1121,83 1122,82 1123,82 1124,81 1125,79 1126,79 1128,76 1129,73 1131,71 1133,69 1134,68 1134,67 1134,66 1134,65 1135,64 1136,63 1137,62 1138,61 1139,59 1142,58 1143,58 1144,58 1147,58 1149,58 1151,58 1154,58 1155,58 1158,57 1158,57 1160,57 1161,56 1163,55 1164,53 1165,53 1166,52 1167,53 1168,53 1170,54 1173,54 1173,55 1174,56 1176,56 1177,57 1179,57 1181,57 1181,57 1183,58 1184,58 1185,58 1186,58 1187,57 1188,57 1190,56 1191,56 1191,56 1193,56 1193,56 1195,55 1196,55 1197,55 1198,54 1201,55 1202,55 1204,53 1204,53 1205,52 1206,52 1207,52 1209,52 1210,52 1211,51 1212,50 1213,49 1213,48 1214,48 1215,47 1216,47 1216,45 1217,44 1218,43 1221,42 1222,42 1223,42 1225,40 1227,41 1227,41 1228,41 1229,40 1230,39 1230,39 1231,39 1231,39 1231,38 1232,38 1233,37 1235,36 1235,36 1236,36 1236,36 1237,36 1238,36 1238,35 1239,35 1239,34 1240,33 1241,32 1240,31 1240,30 1240,29 1240,28 1241,27 1241,26 1242,25 1242,25 1242,24 1243,24 1244,23 1244,22 1246,21 1247,21 1248,20 1249,20 1250,21 1250,22 1251,23 1251,24 1252,25 1253,26 1254,27 1255,27 1255,27 1256,27 1256,27 1257,26 1257,26 1258,26 1259,25 1259,25 1259,25 1261,24 1261,23 1262,22 1262,22 1264,19 1265,18 1265,17 1267,16 1267,15 1268,15 1268,15 1269,15 1270,15 1271,16 1272,16 1272,17 1272,18 1273,19 1273,20 1274,21 1275,22 1275,23 1276,25 1279,26 1280,25 1283,25 1284,25 1285,24 1285,24 1286,24 1287,24 1288,24 1288,24 1288,24 1288,24 1290,23 1292,23 1293,23 1296,24 1298,25 1300,26 1301,27 1301,28 1302,30 1304,31 1305,32 1306,33 1307,33 1307,33 1308,33 1309,33 1310,32 1312,32 1314,30 1315,30 1318,29 1319,28 1320,28 1321,26 1321,25 1322,23 1322,22 1323,21 1323,20 1324,19 1325,18 1325,16 1327,13 1328,13 1328,12 1328,11 1329,10 1329,10 1330,9 1332,9 1333,9 1334,10 1335,11 1336,12 1336,12 1337,13 1339,13 1342,14 1344,14 1344,13 1345,14 1346,14 1346,13 1347,13 1347,13 1347,13 1347,14 1347,13 1348,14 1348,14 1349,14 1349,14 1349,14 1349,14 1350,14 1353,11 1354,9 1356,5 1357,4 1358,3 1359,4 1360,4 1362,2 1370,-2 1383,-7 1394,-9 1406,-16 1412,-22 1423,-24 1429,-30 1434,-40 1439,-41 1445,-31 1451,-22 1459,-11 1459,0 1449,6 1440,11 1437,18 1437,28 1438,28 1438,32 1440,39 1444,46 1448,53 1456,58 1460,63 1461,71 1457,76 1457,84 1453,90 1449,95 1446,101 1441,107 1437,112 1436,115 1437,123 1437,128 1428,133 1424,134 1421,141 1419,146 1416,154 1418,159 1422,168 1429,171 1428,175 1421,181 1415,189 1407,195 1391,201 1386,203 1382,207 1381,217 1381,225 1380,234 1380,241 1371,248 1364,245 1358,249 1348,264 1343,270 1336,276 1332,280 1330,282 1330,282 Z"
           stroke-miterlimit="4" />
        <path
           style="fill:#000000;fill-opacity:1;stroke:#222222;stroke-width:2.32628679;stroke-linecap:butt;stroke-linejoin:miter;stroke-miterlimit:4;stroke-dasharray:none;stroke-opacity:1"
           inkscape:connector-curvature="0"
           id="path13"
           dojoGfxStrokeStyle="solid"
           d="m 1055,67 4,1 2,-1 1,0 0,0 3,2 3,3 0,1 2,3 1,0 1,2 1,1 2,2 3,1 0,1 2,0 -3,3 -9,7 -9,4 -2,11 2,19 11,8 12,8 4,15 9,11 9,14 4,17 3,11 11,12 9,18 4,15 0,20 -8,10 -1,6 -1,1 -6,0 -5,0 -4,-7 -6,-7 -8,-8 -2,-8 6,-8 0,-6 -3,-7 0,-7 -7,-4 -9,-4 -4,2 -3,3 -8,4 -4,6 -5,7 -9,6 -6,-2 -6,-3 0,-1 0,0 -4,-2 -5,-3 -8,2 -6,2 -5,-1 -5,4 -6,5 -8,2 -2,7 3,8 -1,7 -6,5 -11,-2 -5,3 -3,4 -5,0 -6,-4 -3,-8 -5,-2 -6,-3 -1,-4 -5,-4 -4,-4 -4,-5 -1,-7 1,-6 -3,-5 -6,1 -4,0 -2,-1 -3,-4 -7,0 -6,3 -5,8 -7,2 -7,-1 -6,3 -7,2 -5,4 -6,7 -7,2 -2,10 -12,6 -12,6 -8,8 -4,6 -8,10 -7,5 -1,-2 6,-10 14,-19 5,-14 -2,-12 -8,-10 -5,-10 0,-1 -12,-6 -7,-3 -6,-13 -3,-14 -7,-11 -8,-10 -9,-7 0,-8 4,-4 -1,-9 2,-9 1,-2 1,1 1,0 2,1 4,0 3,0 2,-1 2,-2 3,-6 2,-1 5,-4 1,-1 2,-1 0,-3 2,-3 2,-1 1,-1 1,-1 1,-2 1,-1 1,-1 1,-4 3,0 2,0 2,-1 1,-1 3,-3 2,-1 1,-1 2,-1 4,0 4,0 2,0 3,0 2,-1 1,0 2,0 2,1 4,2 2,1 3,2 1,1 2,0 1,0 2,0 3,2 2,0 1,-1 2,1 2,1 0,0 3,-2 1,0 2,-1 4,0 1,0 3,0 3,0 2,1 3,3 2,1 2,1 2,0 1,1 3,0 2,0 4,0 4,0 2,1 3,0 2,2 4,3 2,2 2,2 1,0 5,0 2,0 4,2 5,3 0,3 1,1 5,5 2,1 2,1 2,2 3,2 2,0 4,2 2,0 1,0 2,-1 0,0 2,0 2,-1 1,0 2,0 1,0 2,0 2,-1 1,0 5,-4 2,-1 1,0 3,-1 1,-1 1,-1 1,-2 1,-1 0,0 1,-1 3,-1 1,-2 1,-1 1,0 1,0 0,0 2,0 1,0 3,0 2,0 1,-1 1,0 0,0 1,-1 0,1 1,0 1,0 2,0 1,1 2,-1 2,1 1,0 1,0 1,0 2,0 1,-2 0,-1 2,-1 2,-1 0,0 1,-1 0,-1 0,-1 0,-1 0,-1 -1,0 -1,-1 -4,-2 -2,0 -2,-1 -2,-1 -3,0 -2,-1 -1,-1 -1,-3 -1,-1 1,-2 -1,-1 0,-1 0,0 0,0 0,-1 0,-2 1,-1 1,-1 -1,-2 0,-1 1,-2 0,-1 0,-1 0,-1 0,0 0,-1 1,0 2,-1 0,0 1,-1 2,-2 0,0 3,-3 3,-1 6,-3 2,0 4,0 1,0 1,1 0,0 1,1 1,2 0,2 1,1 2,1 1,0 2,-1 2,-1 1,0 2,-1 0,-1 1,-2 0,-2 1,-1 1,-2 1,-3 2,-1 2,-2 4,-2 2,0 z"
           path="M 1055,67 1059,68 1061,67 1062,67 1062,67 1065,69 1068,72 1068,73 1070,76 1071,76 1072,78 1073,79 1075,81 1078,82 1078,83 1080,83 1077,86 1068,93 1059,97 1057,108 1059,127 1070,135 1082,143 1086,158 1095,169 1104,183 1108,200 1111,211 1122,223 1131,241 1135,256 1135,276 1127,286 1126,292 1125,293 1119,293 1114,293 1110,286 1104,279 1096,271 1094,263 1100,255 1100,249 1097,242 1097,235 1090,231 1081,227 1077,229 1074,232 1066,236 1062,242 1057,249 1048,255 1042,253 1036,250 1036,249 1036,249 1032,247 1027,244 1019,246 1013,248 1008,247 1003,251 997,256 989,258 987,265 990,273 989,280 983,285 972,283 967,286 964,290 959,290 953,286 950,278 945,276 939,273 938,269 933,265 929,261 925,256 924,249 925,243 922,238 916,239 912,239 910,238 907,234 900,234 894,237 889,245 882,247 875,246 869,249 862,251 857,255 851,262 844,264 842,274 830,280 818,286 810,294 806,300 798,310 791,315 790,313 796,303 810,284 815,270 813,258 805,248 800,238 800,237 788,231 781,228 775,215 772,201 765,190 757,180 748,173 748,165 752,161 751,152 753,143 754,141 755,142 756,142 758,143 762,143 765,143 767,142 769,140 772,134 774,133 779,129 780,128 782,127 782,124 784,121 786,120 787,119 788,118 789,116 790,115 791,114 792,110 795,110 797,110 799,109 800,108 803,105 805,104 806,103 808,102 812,102 816,102 818,102 821,102 823,101 824,101 826,101 828,102 832,104 834,105 837,107 838,108 840,108 841,108 843,108 846,110 848,110 849,109 851,110 853,111 853,111 856,109 857,109 859,108 863,108 864,108 867,108 870,108 872,109 875,112 877,113 879,114 881,114 882,115 885,115 887,115 891,115 895,115 897,116 900,116 902,118 906,121 908,123 910,125 911,125 916,125 918,125 922,127 927,130 927,133 928,134 933,139 935,140 937,141 939,143 942,145 944,145 948,147 950,147 951,147 953,146 953,146 955,146 957,145 958,145 960,145 961,145 963,145 965,144 966,144 971,140 973,139 974,139 977,138 978,137 979,136 980,134 981,133 981,133 982,132 985,131 986,129 987,128 988,128 989,128 989,128 991,128 992,128 995,128 997,128 998,127 999,127 999,127 1000,126 1000,127 1001,127 1002,127 1004,127 1005,128 1007,127 1009,128 1010,128 1011,128 1012,128 1014,128 1015,126 1015,125 1017,124 1019,123 1019,123 1020,122 1020,121 1020,120 1020,119 1020,118 1019,118 1018,117 1014,115 1012,115 1010,114 1008,113 1005,113 1003,112 1002,111 1001,108 1000,107 1001,105 1000,104 1000,103 1000,103 1000,103 1000,102 1000,100 1001,99 1002,98 1001,96 1001,95 1002,93 1002,92 1002,91 1002,90 1002,90 1002,89 1003,89 1005,88 1005,88 1006,87 1008,85 1008,85 1011,82 1014,81 1020,78 1022,78 1026,78 1027,78 1028,79 1028,79 1029,80 1030,82 1030,84 1031,85 1033,86 1034,86 1036,85 1038,84 1039,84 1041,83 1041,82 1042,80 1042,78 1043,77 1044,75 1045,72 1047,71 1049,69 1053,67 1055,67 Z"
           stroke-miterlimit="4" />
        <path
           style="fill:#000000;fill-opacity:1;stroke:#222222;stroke-width:2.32628679;stroke-linecap:butt;stroke-linejoin:miter;stroke-miterlimit:4;stroke-dasharray:none;stroke-opacity:1"
           inkscape:connector-curvature="0"
           id="path15"
           dojoGfxStrokeStyle="solid"
           d="m 753,143 -2,9 1,9 -4,4 0,8 9,7 8,10 7,11 3,14 6,13 7,3 12,6 0,1 5,10 8,10 2,12 -5,14 -14,19 -6,10 1,2 2,12 0,0 7,21 6,15 0,4 0,40 -1,2 0,2 -63,-2 -8,-1 -6,-2 -6,6 -5,6 -7,2 -6,4 -5,0 0,23 -3,8 -7,-1 -7,-4 -12,1 -11,3 -5,6 -3,6 -5,-1 -7,-2 -5,3 -8,1 -6,-1 -9,0 -6,-2 -7,-2 -10,2 -6,4 -6,3 -2,-3 0,-5 -4,-6 -4,-5 -6,-2 -6,0 -9,0 -4,0 -6,-1 0,-1 0,-1 0,-3 -2,-3 0,0 0,-1 0,0 0,0 -1,-1 0,0 0,-1 -1,0 0,0 0,-1 -1,-1 0,-1 0,0 -1,-2 -1,-1 -2,-2 -3,-1 -1,0 -4,1 -3,0 -3,1 -5,-2 -2,-2 -1,-1 -5,0 -2,0 -1,2 -1,2 -2,1 -3,0 -3,-1 -2,-6 -6,-7 0,-1 3,-2 4,-3 4,-3 5,-1 4,-3 5,-6 2,-6 2,-5 5,-4 4,-1 7,-4 7,-5 0,0 0,0 0,-11 3,-8 3,-9 4,-7 0,-6 3,-4 4,-5 5,-6 1,-8 0,0 0,0 0,-9 -1,-10 -2,-8 -3,-8 -2,-7 0,-8 2,-5 2,-6 3,-3 7,-5 2,-4 2,0 2,-1 5,1 1,0 1,1 3,1 4,0 2,0 2,-3 2,-2 2,-2 2,-3 2,-2 2,-3 3,-2 7,-2 5,0 2,0 3,-1 6,-4 9,-1 2,-1 3,-1 1,-2 0,-3 0,-5 0,-2 1,0 3,-3 3,-4 1,-1 4,-1 2,-1 0,0 1,-4 0,-2 -1,-4 1,-1 0,-1 3,-1 2,-2 1,-2 0,-3 0,-3 1,-1 2,-2 7,-4 6,-3 4,-2 5,-1 2,-2 3,-1 2,0 2,0 2,1 1,2 2,1 3,1 2,0 3,-1 1,-1 5,-4 2,-1 1,-1 3,-1 3,-2 5,0 10,-1 9,1 11,-1 z"
           path="M 753,143 751,152 752,161 748,165 748,173 757,180 765,190 772,201 775,215 781,228 788,231 800,237 800,238 805,248 813,258 815,270 810,284 796,303 790,313 791,315 793,327 793,327 800,348 806,363 806,367 806,407 805,409 805,411 742,409 734,408 728,406 722,412 717,418 710,420 704,424 699,424 699,447 696,455 689,454 682,450 670,451 659,454 654,460 651,466 646,465 639,463 634,466 626,467 620,466 611,466 605,464 598,462 588,464 582,468 576,471 574,468 574,463 570,457 566,452 560,450 554,450 545,450 541,450 535,449 535,448 535,447 535,444 533,441 533,441 533,440 533,440 533,440 532,439 532,439 532,438 531,438 531,438 531,437 530,436 530,435 530,435 529,433 528,432 526,430 523,429 522,429 518,430 515,430 512,431 507,429 505,427 504,426 499,426 497,426 496,428 495,430 493,431 490,431 487,430 485,424 479,417 479,416 482,414 486,411 490,408 495,407 499,404 504,398 506,392 508,387 513,383 517,382 524,378 531,373 531,373 531,373 531,362 534,354 537,345 541,338 541,332 544,328 548,323 553,317 554,309 554,309 554,309 554,300 553,290 551,282 548,274 546,267 546,259 548,254 550,248 553,245 560,240 562,236 564,236 566,235 571,236 572,236 573,237 576,238 580,238 582,238 584,235 586,233 588,231 590,228 592,226 594,223 597,221 604,219 609,219 611,219 614,218 620,214 629,213 631,212 634,211 635,209 635,206 635,201 635,199 636,199 639,196 642,192 643,191 647,190 649,189 649,189 650,185 650,183 649,179 650,178 650,177 653,176 655,174 656,172 656,169 656,166 657,165 659,163 666,159 672,156 676,154 681,153 683,151 686,150 688,150 690,150 692,151 693,153 695,154 698,155 700,155 703,154 704,153 709,149 711,148 712,147 715,146 718,144 723,144 733,143 742,144 753,143 Z"
           stroke-miterlimit="4" />
      </g>
      <path
         stroke-miterlimit="4"
         path="M 1471,791 1471,727 1567,727 1566,743 1562,745 1560,746 1559,747 1559,749 1558,752 1558,753 1559,763 1559,765 1559,766 1558,768 1555,771 1552,773 1549,774 1546,775 1544,775 1540,775 1535,776 1529,774 1527,774 1520,775 1513,777 1510,778 1509,779 1506,784 1502,789 1501,790 1499,792 1492,793 1489,794 1484,796 1483,797 1481,797 1480,796 1476,792 1475,792 1473,791 1471,791 Z"
         d="m 1471,791 0,-64 96,0 -1,16 -4,2 -2,1 -1,1 0,2 -1,3 0,1 1,10 0,2 0,1 -1,2 -3,3 -3,2 -3,1 -3,1 -2,0 -4,0 -5,1 -6,-2 -2,0 -7,1 -7,2 -3,1 -1,1 -3,5 -4,5 -1,1 -2,2 -7,1 -3,1 -5,2 -1,1 -2,0 -1,-1 -4,-4 -1,0 -2,-1 -2,0 z"
         dojoGfxStrokeStyle="solid"
         id="path17"
         inkscape:connector-curvature="0"
         style="fill:none;fill-opacity:1;stroke:#000000;stroke-width:1;stroke-linecap:butt;stroke-linejoin:miter;stroke-miterlimit:4;stroke-dasharray:none;stroke-opacity:1"
         inkscape:export-xdpi="300"
         inkscape:export-ydpi="300" />
      <g
         id="g4152"
         transform="matrix(1.0981516,0,0,1.0981516,-109.26077,120.27751)"
         inkscape:export-xdpi="300"
         inkscape:export-ydpi="300">
        <text
           sodipodi:linespacing="125%"
           id="text5650"
           y="255.1174"
           x="758.1759"
           style="font-style:normal;font-weight:normal;font-size:360.41281128px;line-height:125%;font-family:sans-serif;letter-spacing:0px;word-spacing:0px;fill:#f4ed39;fill-opacity:1;stroke:none;stroke-width:1px;stroke-linecap:butt;stroke-linejoin:miter;stroke-opacity:1"
           xml:space="preserve"><tspan
             style="font-style:normal;font-variant:normal;font-weight:900;font-stretch:normal;font-family:'Playfair Display';-inkscape-font-specification:'Playfair Display Heavy';fill:#f4ed39;fill-opacity:1"
             y="255.1174"
             x="758.1759"
             id="tspan5652"
             sodipodi:role="line">Arco</tspan></text>
        <text
           sodipodi:linespacing="125%"
           id="text5654"
           y="559.19128"
           x="541.86304"
           style="font-style:normal;font-weight:normal;font-size:360.41281128px;line-height:125%;font-family:sans-serif;letter-spacing:0px;word-spacing:0px;fill:#f4ed39;fill-opacity:1;stroke:none;stroke-width:1px;stroke-linecap:butt;stroke-linejoin:miter;stroke-opacity:1"
           xml:space="preserve"><tspan
             style="font-style:normal;font-variant:normal;font-weight:900;font-stretch:normal;font-family:'Playfair Display';-inkscape-font-specification:'Playfair Display Heavy';fill:#f4ed39;fill-opacity:1"
             y="559.19128"
             x="541.86304"
             id="tspan5656"
             sodipodi:role="line">Minero</tspan></text>
      </g>
    </g>
  </g>
  <defs
     id="defs30">
    <filter
       filterUnits="userSpaceOnUse"
       x="-89"
       y="-133"
       width="1920"
       height="871"
       id="halo_esri.Map_1_labels_0_0_0_1_1">
      <feMorphology
         operator="dilate"
         radius="1"
         result="dilated"
         id="feMorphology33" />
      <feFlood
         flood-color="rgba(0, 0, 0, 1)"
         id="feFlood35" />
      <feComposite
         in2="dilated"
         operator="in"
         result="composite"
         id="feComposite37" />
      <feMerge
         id="feMerge39">
        <feMergeNode
           in="composite"
           id="feMergeNode41" />
        <feMergeNode
           in="SourceGraphic"
           id="feMergeNode43" />
      </feMerge>
    </filter>
  </defs>
  <g
     id="esri.Map_1_graphics_layer"
     style="display:block"
     transform="translate(-251.7475,156.29037)">
    <g
       id="g46" />
  </g>
</svg>
